<?xml version="1.0" encoding="UTF-8" standalone="no"?>
<!DOCTYPE svg PUBLIC "-//W3C//DTD SVG 1.1//EN"
 "http://www.w3.org/Graphics/SVG/1.1/DTD/svg11.dtd">
<!-- Generated by graphviz version 6.0.1 (20220911.1526)
 -->
<!-- Pages: 1 -->
<svg width="1479pt" height="844pt"
 viewBox="0.00 0.00 1479.00 844.00" xmlns="http://www.w3.org/2000/svg" xmlns:xlink="http://www.w3.org/1999/xlink">
<g id="graph0" class="graph" transform="scale(1 1) rotate(0) translate(4 840)">
<polygon fill="white" stroke="none" points="-4,4 -4,-840 1475,-840 1475,4 -4,4"/>
<!-- 0 -->
<g id="node1" class="node">
<title>0</title>
<polygon fill="none" stroke="gray" points="724,-628.5 553,-628.5 553,-576.5 724,-576.5 724,-628.5"/>
<text text-anchor="start" x="565.5" y="-609.3" font-family="Times New Roman,serif" font-size="14.00">Value(0)</text>
<text text-anchor="start" x="638" y="-610.3" font-family="Times New Roman,serif" font-weight="bold" font-size="14.00">Constant</text>
<text text-anchor="start" x="573" y="-588.3" font-family="Times New Roman,serif" font-size="14.00">shape</text>
<text text-anchor="start" x="619.5" y="-588.3" font-family="Times New Roman,serif" font-size="14.00">(32 x 32 x 3 x 3)</text>
</g>
<!-- 8 -->
<g id="node9" class="node">
<title>8</title>
<polygon fill="none" stroke="blue" points="841.5,-530 663.5,-530 663.5,-457 841.5,-457 841.5,-530"/>
<text text-anchor="start" x="675.5" y="-510.3" font-family="Times New Roman,serif" font-size="14.00">Value(8)</text>
<text text-anchor="start" x="763" y="-511.3" font-family="Times New Roman,serif" font-weight="bold" font-size="14.00">Conv</text>
<text text-anchor="start" x="683" y="-489.3" font-family="Times New Roman,serif" font-size="14.00">shape</text>
<text text-anchor="start" x="729.5" y="-489.3" font-family="Times New Roman,serif" font-size="14.00">(8 x 32 x 16 x 16)</text>
<text text-anchor="start" x="682.5" y="-468.3" font-family="Times New Roman,serif" font-size="14.00">kernel</text>
<text text-anchor="start" x="769" y="-468.3" font-family="Times New Roman,serif" font-size="14.00">3x3</text>
</g>
<!-- 0&#45;&gt;8 -->
<g id="edge3" class="edge">
<title>0&#45;&gt;8</title>
<path fill="none" stroke="black" d="M665.23,-576.41C677.67,-564.74 692.82,-550.51 706.99,-537.22"/>
<polygon fill="black" stroke="black" points="709.39,-539.77 714.28,-530.37 704.6,-534.66 709.39,-539.77"/>
</g>
<!-- 1 -->
<g id="node2" class="node">
<title>1</title>
<polygon fill="none" stroke="gray" points="1092.5,-727 948.5,-727 948.5,-675 1092.5,-675 1092.5,-727"/>
<text text-anchor="start" x="965.5" y="-707.8" font-family="Times New Roman,serif" font-size="14.00">Value(1)</text>
<text text-anchor="start" x="1019.5" y="-708.8" font-family="Times New Roman,serif" font-weight="bold" font-size="14.00">Constant</text>
<text text-anchor="start" x="973" y="-686.8" font-family="Times New Roman,serif" font-size="14.00">shape</text>
<text text-anchor="start" x="1036" y="-686.8" font-family="Times New Roman,serif" font-size="14.00">(32)</text>
</g>
<!-- 7 -->
<g id="node8" class="node">
<title>7</title>
<polygon fill="none" stroke="brown" points="1102.5,-628.5 938.5,-628.5 938.5,-576.5 1102.5,-576.5 1102.5,-628.5"/>
<text text-anchor="start" x="950.5" y="-609.3" font-family="Times New Roman,serif" font-size="14.00">Value(7)</text>
<text text-anchor="start" x="1032" y="-610.3" font-family="Times New Roman,serif" font-weight="bold" font-size="14.00">View</text>
<text text-anchor="start" x="958" y="-588.3" font-family="Times New Roman,serif" font-size="14.00">shape</text>
<text text-anchor="start" x="1004.5" y="-588.3" font-family="Times New Roman,serif" font-size="14.00">(1 x 32 x 1 x 1)</text>
</g>
<!-- 1&#45;&gt;7 -->
<g id="edge1" class="edge">
<title>1&#45;&gt;7</title>
<path fill="none" stroke="black" d="M1020.5,-674.9C1020.5,-663.93 1020.5,-650.86 1020.5,-638.93"/>
<polygon fill="black" stroke="black" points="1024,-638.81 1020.5,-628.81 1017,-638.81 1024,-638.81"/>
</g>
<!-- 2 -->
<g id="node3" class="node">
<title>2</title>
<polygon fill="none" stroke="gray" points="1268.5,-825.5 1124.5,-825.5 1124.5,-773.5 1268.5,-773.5 1268.5,-825.5"/>
<text text-anchor="start" x="1141.5" y="-806.3" font-family="Times New Roman,serif" font-size="14.00">Value(2)</text>
<text text-anchor="start" x="1195.5" y="-807.3" font-family="Times New Roman,serif" font-weight="bold" font-size="14.00">Constant</text>
<text text-anchor="start" x="1149" y="-785.3" font-family="Times New Roman,serif" font-size="14.00">shape</text>
<text text-anchor="start" x="1212" y="-785.3" font-family="Times New Roman,serif" font-size="14.00">(32)</text>
</g>
<!-- 12 -->
<g id="node13" class="node">
<title>12</title>
<polygon fill="none" stroke="brown" points="1282,-727 1111,-727 1111,-675 1282,-675 1282,-727"/>
<text text-anchor="start" x="1123.5" y="-707.8" font-family="Times New Roman,serif" font-size="14.00">Value(12)</text>
<text text-anchor="start" x="1212" y="-708.8" font-family="Times New Roman,serif" font-weight="bold" font-size="14.00">View</text>
<text text-anchor="start" x="1134.5" y="-686.8" font-family="Times New Roman,serif" font-size="14.00">shape</text>
<text text-anchor="start" x="1184.5" y="-686.8" font-family="Times New Roman,serif" font-size="14.00">(1 x 32 x 1 x 1)</text>
</g>
<!-- 2&#45;&gt;12 -->
<g id="edge7" class="edge">
<title>2&#45;&gt;12</title>
<path fill="none" stroke="black" d="M1196.5,-773.4C1196.5,-762.43 1196.5,-749.36 1196.5,-737.43"/>
<polygon fill="black" stroke="black" points="1200,-737.31 1196.5,-727.31 1193,-737.31 1200,-737.31"/>
</g>
<!-- 3 -->
<g id="node4" class="node">
<title>3</title>
<polygon fill="none" stroke="gray" points="1457.5,-825.5 1313.5,-825.5 1313.5,-773.5 1457.5,-773.5 1457.5,-825.5"/>
<text text-anchor="start" x="1330.5" y="-806.3" font-family="Times New Roman,serif" font-size="14.00">Value(3)</text>
<text text-anchor="start" x="1384.5" y="-807.3" font-family="Times New Roman,serif" font-weight="bold" font-size="14.00">Constant</text>
<text text-anchor="start" x="1338" y="-785.3" font-family="Times New Roman,serif" font-size="14.00">shape</text>
<text text-anchor="start" x="1401" y="-785.3" font-family="Times New Roman,serif" font-size="14.00">(32)</text>
</g>
<!-- 13 -->
<g id="node14" class="node">
<title>13</title>
<polygon fill="none" stroke="brown" points="1471,-727 1300,-727 1300,-675 1471,-675 1471,-727"/>
<text text-anchor="start" x="1312.5" y="-707.8" font-family="Times New Roman,serif" font-size="14.00">Value(13)</text>
<text text-anchor="start" x="1401" y="-708.8" font-family="Times New Roman,serif" font-weight="bold" font-size="14.00">View</text>
<text text-anchor="start" x="1323.5" y="-686.8" font-family="Times New Roman,serif" font-size="14.00">shape</text>
<text text-anchor="start" x="1373.5" y="-686.8" font-family="Times New Roman,serif" font-size="14.00">(1 x 32 x 1 x 1)</text>
</g>
<!-- 3&#45;&gt;13 -->
<g id="edge8" class="edge">
<title>3&#45;&gt;13</title>
<path fill="none" stroke="black" d="M1385.5,-773.4C1385.5,-762.43 1385.5,-749.36 1385.5,-737.43"/>
<polygon fill="black" stroke="black" points="1389,-737.31 1385.5,-727.31 1382,-737.31 1389,-737.31"/>
</g>
<!-- 4 -->
<g id="node5" class="node">
<title>4</title>
<polygon fill="none" stroke="gray" points="534.5,-628.5 390.5,-628.5 390.5,-576.5 534.5,-576.5 534.5,-628.5"/>
<text text-anchor="start" x="407.5" y="-609.3" font-family="Times New Roman,serif" font-size="14.00">Value(4)</text>
<text text-anchor="start" x="461.5" y="-610.3" font-family="Times New Roman,serif" font-weight="bold" font-size="14.00">Constant</text>
<text text-anchor="start" x="415" y="-588.3" font-family="Times New Roman,serif" font-size="14.00">shape</text>
<text text-anchor="start" x="478" y="-588.3" font-family="Times New Roman,serif" font-size="14.00">(32)</text>
</g>
<!-- 14 -->
<g id="node15" class="node">
<title>14</title>
<polygon fill="none" stroke="brown" points="551,-519.5 380,-519.5 380,-467.5 551,-467.5 551,-519.5"/>
<text text-anchor="start" x="392.5" y="-500.3" font-family="Times New Roman,serif" font-size="14.00">Value(14)</text>
<text text-anchor="start" x="481" y="-501.3" font-family="Times New Roman,serif" font-weight="bold" font-size="14.00">View</text>
<text text-anchor="start" x="403.5" y="-479.3" font-family="Times New Roman,serif" font-size="14.00">shape</text>
<text text-anchor="start" x="453.5" y="-479.3" font-family="Times New Roman,serif" font-size="14.00">(1 x 32 x 1 x 1)</text>
</g>
<!-- 4&#45;&gt;14 -->
<g id="edge9" class="edge">
<title>4&#45;&gt;14</title>
<path fill="none" stroke="black" d="M463.2,-576.41C463.59,-562.56 464.08,-545.13 464.51,-529.91"/>
<polygon fill="black" stroke="black" points="468.01,-529.89 464.79,-519.8 461.01,-529.7 468.01,-529.89"/>
</g>
<!-- 5 -->
<g id="node6" class="node">
<title>5</title>
<polygon fill="none" stroke="gray" points="157.5,-727 13.5,-727 13.5,-675 157.5,-675 157.5,-727"/>
<text text-anchor="start" x="30.5" y="-707.8" font-family="Times New Roman,serif" font-size="14.00">Value(5)</text>
<text text-anchor="start" x="84.5" y="-708.8" font-family="Times New Roman,serif" font-weight="bold" font-size="14.00">Constant</text>
<text text-anchor="start" x="38" y="-686.8" font-family="Times New Roman,serif" font-size="14.00">shape</text>
<text text-anchor="start" x="101" y="-686.8" font-family="Times New Roman,serif" font-size="14.00">(32)</text>
</g>
<!-- 15 -->
<g id="node16" class="node">
<title>15</title>
<polygon fill="none" stroke="brown" points="171,-628.5 0,-628.5 0,-576.5 171,-576.5 171,-628.5"/>
<text text-anchor="start" x="12.5" y="-609.3" font-family="Times New Roman,serif" font-size="14.00">Value(15)</text>
<text text-anchor="start" x="101" y="-610.3" font-family="Times New Roman,serif" font-weight="bold" font-size="14.00">View</text>
<text text-anchor="start" x="23.5" y="-588.3" font-family="Times New Roman,serif" font-size="14.00">shape</text>
<text text-anchor="start" x="73.5" y="-588.3" font-family="Times New Roman,serif" font-size="14.00">(1 x 32 x 1 x 1)</text>
</g>
<!-- 5&#45;&gt;15 -->
<g id="edge10" class="edge">
<title>5&#45;&gt;15</title>
<path fill="none" stroke="black" d="M85.5,-674.9C85.5,-663.93 85.5,-650.86 85.5,-638.93"/>
<polygon fill="black" stroke="black" points="89,-638.81 85.5,-628.81 82,-638.81 89,-638.81"/>
</g>
<!-- 6 -->
<g id="node7" class="node">
<title>6</title>
<polygon fill="none" stroke="gray" points="920.5,-639 742.5,-639 742.5,-566 920.5,-566 920.5,-639"/>
<text text-anchor="start" x="754.5" y="-619.3" font-family="Times New Roman,serif" font-size="14.00">Value(6)</text>
<text text-anchor="start" x="842" y="-620.3" font-family="Times New Roman,serif" font-weight="bold" font-size="14.00">Input</text>
<text text-anchor="start" x="762" y="-598.3" font-family="Times New Roman,serif" font-size="14.00">shape</text>
<text text-anchor="start" x="808.5" y="-598.3" font-family="Times New Roman,serif" font-size="14.00">(8 x 32 x 16 x 16)</text>
<text text-anchor="start" x="763" y="-577.3" font-family="Times New Roman,serif" font-size="14.00">index</text>
<text text-anchor="start" x="855" y="-577.3" font-family="Times New Roman,serif" font-size="14.00">0</text>
</g>
<!-- 6&#45;&gt;8 -->
<g id="edge2" class="edge">
<title>6&#45;&gt;8</title>
<path fill="none" stroke="black" d="M805.19,-565.87C798.73,-557.12 791.74,-547.65 785.03,-538.55"/>
<polygon fill="black" stroke="black" points="787.72,-536.3 778.96,-530.34 782.08,-540.46 787.72,-536.3"/>
</g>
<!-- 9 -->
<g id="node10" class="node">
<title>9</title>
<polygon fill="none" stroke="brown" points="1074.5,-519.5 896.5,-519.5 896.5,-467.5 1074.5,-467.5 1074.5,-519.5"/>
<text text-anchor="start" x="908.5" y="-500.3" font-family="Times New Roman,serif" font-size="14.00">Value(9)</text>
<text text-anchor="start" x="980.5" y="-501.3" font-family="Times New Roman,serif" font-weight="bold" font-size="14.00">Broadcast</text>
<text text-anchor="start" x="916" y="-479.3" font-family="Times New Roman,serif" font-size="14.00">shape</text>
<text text-anchor="start" x="962.5" y="-479.3" font-family="Times New Roman,serif" font-size="14.00">(8 x 32 x 16 x 16)</text>
</g>
<!-- 7&#45;&gt;9 -->
<g id="edge4" class="edge">
<title>7&#45;&gt;9</title>
<path fill="none" stroke="black" d="M1012.29,-576.41C1007.72,-562.43 1001.95,-544.79 996.94,-529.47"/>
<polygon fill="black" stroke="black" points="1000.21,-528.22 993.78,-519.8 993.56,-530.39 1000.21,-528.22"/>
</g>
<!-- 10 -->
<g id="node11" class="node">
<title>10</title>
<polygon fill="none" stroke="green" points="845,-421 660,-421 660,-348 845,-348 845,-421"/>
<text text-anchor="start" x="672.5" y="-401.3" font-family="Times New Roman,serif" font-size="14.00">Value(10)</text>
<text text-anchor="start" x="762.5" y="-402.3" font-family="Times New Roman,serif" font-weight="bold" font-size="14.00">Binary</text>
<text text-anchor="start" x="683.5" y="-380.3" font-family="Times New Roman,serif" font-size="14.00">shape</text>
<text text-anchor="start" x="733.5" y="-380.3" font-family="Times New Roman,serif" font-size="14.00">(8 x 32 x 16 x 16)</text>
<text text-anchor="start" x="692" y="-359.3" font-family="Times New Roman,serif" font-size="14.00">op</text>
<text text-anchor="start" x="771" y="-359.3" font-family="Times New Roman,serif" font-size="14.00">Add</text>
</g>
<!-- 8&#45;&gt;10 -->
<g id="edge5" class="edge">
<title>8&#45;&gt;10</title>
<path fill="none" stroke="black" d="M752.5,-456.87C752.5,-448.75 752.5,-440 752.5,-431.51"/>
<polygon fill="black" stroke="black" points="756,-431.34 752.5,-421.34 749,-431.34 756,-431.34"/>
</g>
<!-- 9&#45;&gt;10 -->
<g id="edge6" class="edge">
<title>9&#45;&gt;10</title>
<path fill="none" stroke="black" d="M930.87,-467.41C903.69,-454.93 870.17,-439.54 839.56,-425.48"/>
<polygon fill="black" stroke="black" points="840.71,-422.16 830.17,-421.17 837.79,-428.52 840.71,-422.16"/>
</g>
<!-- 21 -->
<g id="node22" class="node">
<title>21</title>
<polygon fill="none" stroke="green" points="566,-312 381,-312 381,-239 566,-239 566,-312"/>
<text text-anchor="start" x="393.5" y="-292.3" font-family="Times New Roman,serif" font-size="14.00">Value(21)</text>
<text text-anchor="start" x="483.5" y="-293.3" font-family="Times New Roman,serif" font-weight="bold" font-size="14.00">Binary</text>
<text text-anchor="start" x="404.5" y="-271.3" font-family="Times New Roman,serif" font-size="14.00">shape</text>
<text text-anchor="start" x="454.5" y="-271.3" font-family="Times New Roman,serif" font-size="14.00">(8 x 32 x 16 x 16)</text>
<text text-anchor="start" x="413" y="-250.3" font-family="Times New Roman,serif" font-size="14.00">op</text>
<text text-anchor="start" x="493" y="-250.3" font-family="Times New Roman,serif" font-size="14.00">Sub</text>
</g>
<!-- 10&#45;&gt;21 -->
<g id="edge17" class="edge">
<title>10&#45;&gt;21</title>
<path fill="none" stroke="black" d="M659.98,-348.02C633.03,-337.68 603.41,-326.32 575.88,-315.77"/>
<polygon fill="black" stroke="black" points="576.83,-312.38 566.24,-312.07 574.32,-318.92 576.83,-312.38"/>
</g>
<!-- 11 -->
<g id="node12" class="node">
<title>11</title>
<polygon fill="none" stroke="gray" points="346.5,-836 202.5,-836 202.5,-763 346.5,-763 346.5,-836"/>
<text text-anchor="start" x="216.5" y="-816.3" font-family="Times New Roman,serif" font-size="14.00">Value(11)</text>
<text text-anchor="start" x="277.5" y="-817.3" font-family="Times New Roman,serif" font-weight="bold" font-size="14.00">Constant</text>
<text text-anchor="start" x="227.5" y="-795.3" font-family="Times New Roman,serif" font-size="14.00">shape</text>
<text text-anchor="start" x="300.5" y="-795.3" font-family="Times New Roman,serif" font-size="14.00">()</text>
<text text-anchor="start" x="229.5" y="-774.3" font-family="Times New Roman,serif" font-size="14.00">value</text>
<text text-anchor="start" x="283" y="-774.3" font-family="Times New Roman,serif" font-size="14.00">0.00001</text>
</g>
<!-- 16 -->
<g id="node17" class="node">
<title>16</title>
<polygon fill="none" stroke="brown" points="356.5,-727 192.5,-727 192.5,-675 356.5,-675 356.5,-727"/>
<text text-anchor="start" x="204.5" y="-707.8" font-family="Times New Roman,serif" font-size="14.00">Value(16)</text>
<text text-anchor="start" x="289.5" y="-708.8" font-family="Times New Roman,serif" font-weight="bold" font-size="14.00">View</text>
<text text-anchor="start" x="215.5" y="-686.8" font-family="Times New Roman,serif" font-size="14.00">shape</text>
<text text-anchor="start" x="265.5" y="-686.8" font-family="Times New Roman,serif" font-size="14.00">(1 x 1 x 1 x 1)</text>
</g>
<!-- 11&#45;&gt;16 -->
<g id="edge11" class="edge">
<title>11&#45;&gt;16</title>
<path fill="none" stroke="black" d="M274.5,-762.84C274.5,-754.54 274.5,-745.7 274.5,-737.4"/>
<polygon fill="black" stroke="black" points="278,-737.27 274.5,-727.27 271,-737.27 278,-737.27"/>
</g>
<!-- 20 -->
<g id="node21" class="node">
<title>20</title>
<polygon fill="none" stroke="brown" points="563,-410.5 378,-410.5 378,-358.5 563,-358.5 563,-410.5"/>
<text text-anchor="start" x="390.5" y="-391.3" font-family="Times New Roman,serif" font-size="14.00">Value(20)</text>
<text text-anchor="start" x="469.5" y="-392.3" font-family="Times New Roman,serif" font-weight="bold" font-size="14.00">Broadcast</text>
<text text-anchor="start" x="401.5" y="-370.3" font-family="Times New Roman,serif" font-size="14.00">shape</text>
<text text-anchor="start" x="451.5" y="-370.3" font-family="Times New Roman,serif" font-size="14.00">(8 x 32 x 16 x 16)</text>
</g>
<!-- 14&#45;&gt;20 -->
<g id="edge16" class="edge">
<title>14&#45;&gt;20</title>
<path fill="none" stroke="black" d="M466.67,-467.41C467.32,-453.56 468.13,-436.13 468.85,-420.91"/>
<polygon fill="black" stroke="black" points="472.35,-420.95 469.32,-410.8 465.35,-420.63 472.35,-420.95"/>
</g>
<!-- 18 -->
<g id="node19" class="node">
<title>18</title>
<polygon fill="none" stroke="green" points="356,-530 185,-530 185,-457 356,-457 356,-530"/>
<text text-anchor="start" x="197.5" y="-510.3" font-family="Times New Roman,serif" font-size="14.00">Value(18)</text>
<text text-anchor="start" x="280.5" y="-511.3" font-family="Times New Roman,serif" font-weight="bold" font-size="14.00">Binary</text>
<text text-anchor="start" x="208.5" y="-489.3" font-family="Times New Roman,serif" font-size="14.00">shape</text>
<text text-anchor="start" x="258.5" y="-489.3" font-family="Times New Roman,serif" font-size="14.00">(1 x 32 x 1 x 1)</text>
<text text-anchor="start" x="217" y="-468.3" font-family="Times New Roman,serif" font-size="14.00">op</text>
<text text-anchor="start" x="289" y="-468.3" font-family="Times New Roman,serif" font-size="14.00">Add</text>
</g>
<!-- 15&#45;&gt;18 -->
<g id="edge13" class="edge">
<title>15&#45;&gt;18</title>
<path fill="none" stroke="black" d="M128.87,-576.41C150.09,-564.15 176.15,-549.07 200.11,-535.21"/>
<polygon fill="black" stroke="black" points="201.93,-538.2 208.83,-530.17 198.43,-532.14 201.93,-538.2"/>
</g>
<!-- 17 -->
<g id="node18" class="node">
<title>17</title>
<polygon fill="none" stroke="brown" points="360,-628.5 189,-628.5 189,-576.5 360,-576.5 360,-628.5"/>
<text text-anchor="start" x="201.5" y="-609.3" font-family="Times New Roman,serif" font-size="14.00">Value(17)</text>
<text text-anchor="start" x="273.5" y="-610.3" font-family="Times New Roman,serif" font-weight="bold" font-size="14.00">Broadcast</text>
<text text-anchor="start" x="212.5" y="-588.3" font-family="Times New Roman,serif" font-size="14.00">shape</text>
<text text-anchor="start" x="262.5" y="-588.3" font-family="Times New Roman,serif" font-size="14.00">(1 x 32 x 1 x 1)</text>
</g>
<!-- 16&#45;&gt;17 -->
<g id="edge12" class="edge">
<title>16&#45;&gt;17</title>
<path fill="none" stroke="black" d="M274.5,-674.9C274.5,-663.93 274.5,-650.86 274.5,-638.93"/>
<polygon fill="black" stroke="black" points="278,-638.81 274.5,-628.81 271,-638.81 278,-638.81"/>
</g>
<!-- 17&#45;&gt;18 -->
<g id="edge14" class="edge">
<title>17&#45;&gt;18</title>
<path fill="none" stroke="black" d="M273.56,-576.41C273.16,-565.7 272.68,-552.85 272.22,-540.53"/>
<polygon fill="black" stroke="black" points="275.71,-540.23 271.84,-530.37 268.72,-540.49 275.71,-540.23"/>
</g>
<!-- 19 -->
<g id="node20" class="node">
<title>19</title>
<polygon fill="none" stroke="green" points="356,-421 185,-421 185,-348 356,-348 356,-421"/>
<text text-anchor="start" x="197.5" y="-401.3" font-family="Times New Roman,serif" font-size="14.00">Value(19)</text>
<text text-anchor="start" x="282.5" y="-402.3" font-family="Times New Roman,serif" font-weight="bold" font-size="14.00">Unary</text>
<text text-anchor="start" x="208.5" y="-380.3" font-family="Times New Roman,serif" font-size="14.00">shape</text>
<text text-anchor="start" x="258.5" y="-380.3" font-family="Times New Roman,serif" font-size="14.00">(1 x 32 x 1 x 1)</text>
<text text-anchor="start" x="217" y="-359.3" font-family="Times New Roman,serif" font-size="14.00">op</text>
<text text-anchor="start" x="289" y="-359.3" font-family="Times New Roman,serif" font-size="14.00">Sqrt</text>
</g>
<!-- 18&#45;&gt;19 -->
<g id="edge15" class="edge">
<title>18&#45;&gt;19</title>
<path fill="none" stroke="black" d="M270.5,-456.87C270.5,-448.75 270.5,-440 270.5,-431.51"/>
<polygon fill="black" stroke="black" points="274,-431.34 270.5,-421.34 267,-431.34 274,-431.34"/>
</g>
<!-- 22 -->
<g id="node23" class="node">
<title>22</title>
<polygon fill="none" stroke="brown" points="363,-301.5 178,-301.5 178,-249.5 363,-249.5 363,-301.5"/>
<text text-anchor="start" x="190.5" y="-282.3" font-family="Times New Roman,serif" font-size="14.00">Value(22)</text>
<text text-anchor="start" x="269.5" y="-283.3" font-family="Times New Roman,serif" font-weight="bold" font-size="14.00">Broadcast</text>
<text text-anchor="start" x="201.5" y="-261.3" font-family="Times New Roman,serif" font-size="14.00">shape</text>
<text text-anchor="start" x="251.5" y="-261.3" font-family="Times New Roman,serif" font-size="14.00">(8 x 32 x 16 x 16)</text>
</g>
<!-- 19&#45;&gt;22 -->
<g id="edge19" class="edge">
<title>19&#45;&gt;22</title>
<path fill="none" stroke="black" d="M270.5,-347.87C270.5,-336.23 270.5,-323.32 270.5,-311.72"/>
<polygon fill="black" stroke="black" points="274,-311.5 270.5,-301.5 267,-311.5 274,-311.5"/>
</g>
<!-- 20&#45;&gt;21 -->
<g id="edge18" class="edge">
<title>20&#45;&gt;21</title>
<path fill="none" stroke="black" d="M471.2,-358.41C471.5,-347.7 471.86,-334.85 472.21,-322.53"/>
<polygon fill="black" stroke="black" points="475.71,-322.46 472.49,-312.37 468.72,-322.27 475.71,-322.46"/>
</g>
<!-- 23 -->
<g id="node24" class="node">
<title>23</title>
<polygon fill="none" stroke="green" points="464,-203 279,-203 279,-130 464,-130 464,-203"/>
<text text-anchor="start" x="291.5" y="-183.3" font-family="Times New Roman,serif" font-size="14.00">Value(23)</text>
<text text-anchor="start" x="381.5" y="-184.3" font-family="Times New Roman,serif" font-weight="bold" font-size="14.00">Binary</text>
<text text-anchor="start" x="302.5" y="-162.3" font-family="Times New Roman,serif" font-size="14.00">shape</text>
<text text-anchor="start" x="352.5" y="-162.3" font-family="Times New Roman,serif" font-size="14.00">(8 x 32 x 16 x 16)</text>
<text text-anchor="start" x="311" y="-141.3" font-family="Times New Roman,serif" font-size="14.00">op</text>
<text text-anchor="start" x="392.5" y="-141.3" font-family="Times New Roman,serif" font-size="14.00">Div</text>
</g>
<!-- 21&#45;&gt;23 -->
<g id="edge20" class="edge">
<title>21&#45;&gt;23</title>
<path fill="none" stroke="black" d="M439.54,-238.87C430.94,-229.85 421.61,-220.07 412.7,-210.72"/>
<polygon fill="black" stroke="black" points="415.1,-208.16 405.66,-203.34 410.03,-212.99 415.1,-208.16"/>
</g>
<!-- 22&#45;&gt;23 -->
<g id="edge21" class="edge">
<title>22&#45;&gt;23</title>
<path fill="none" stroke="black" d="M294.18,-249.41C305,-237.95 318.13,-224.04 330.48,-210.95"/>
<polygon fill="black" stroke="black" points="333.32,-213.04 337.64,-203.37 328.23,-208.24 333.32,-213.04"/>
</g>
<!-- 24 -->
<g id="node25" class="node">
<title>24</title>
<polygon fill="none" stroke="purple" points="464,-94 279,-94 279,0 464,0 464,-94"/>
<text text-anchor="start" x="291.5" y="-74.8" font-family="Times New Roman,serif" font-size="14.00">Value(24)</text>
<text text-anchor="start" x="377" y="-75.8" font-family="Times New Roman,serif" font-weight="bold" font-size="14.00">Softmax</text>
<text text-anchor="start" x="302.5" y="-53.8" font-family="Times New Roman,serif" font-size="14.00">shape</text>
<text text-anchor="start" x="352.5" y="-53.8" font-family="Times New Roman,serif" font-size="14.00">(8 x 32 x 16 x 16)</text>
<text text-anchor="start" x="300.5" y="-32.8" font-family="Times New Roman,serif" font-size="14.00">output</text>
<text text-anchor="start" x="399" y="-32.8" font-family="Times New Roman,serif" font-size="14.00">0</text>
<text text-anchor="start" x="308" y="-11.8" font-family="Times New Roman,serif" font-size="14.00">axis</text>
<text text-anchor="start" x="399" y="-11.8" font-family="Times New Roman,serif" font-size="14.00">1</text>
</g>
<!-- 23&#45;&gt;24 -->
<g id="edge22" class="edge">
<title>23&#45;&gt;24</title>
<path fill="none" stroke="black" d="M371.5,-129.93C371.5,-121.87 371.5,-113.12 371.5,-104.43"/>
<polygon fill="black" stroke="black" points="375,-104.31 371.5,-94.31 368,-104.31 375,-104.31"/>
</g>
</g>
</svg>
