<svg xmlns="http://www.w3.org/2000/svg" id="export" class="canvas" preserveAspectRatio="xMidYMid meet" style="" width="132" height="371"><rect id="background" fill="#fff" pointer-events="all" width="132" height="371"/><g id="origin" transform="translate(5.980029296875, 5.980029296875) scale(1)"><g id="clusters" class="clusters"/><g id="edge-paths" class="edge-paths"><defs><marker id="arrowhead" viewBox="0 0 10 10" refX="9" refY="5" markerUnits="strokeWidth" markerWidth="8" markerHeight="6" orient="auto" style="fill: rgb(0, 0, 0);"><path d="M 0 0 L 10 5 L 0 10 L 4 5 z" style="stroke-width: 1;"/></marker><marker id="arrowhead-select" viewBox="0 0 10 10" refX="9" refY="5" markerUnits="strokeWidth" markerWidth="8" markerHeight="6" orient="auto" style="fill: rgb(238, 0, 0);"><path d="M 0 0 L 10 5 L 0 10 L 4 5 z" style="stroke-width: 1;"/></marker><marker id="arrowhead-hover" viewBox="0 0 10 10" refX="9" refY="5" markerUnits="strokeWidth" markerWidth="8" markerHeight="6" orient="auto"><path d="M 0 0 L 10 5 L 0 10 L 4 5 z" style="stroke-width: 1;"/></marker></defs><path id="edge-input" class="edge-path" d="M54.734375,23L54.734375,24.666666666666668C54.734375,26.333333333333332,54.734375,29.666666666666668,54.734375,35C54.734375,40.333333333333336,54.734375,47.666666666666664,54.734375,55C54.734375,62.333333333333336,54.734375,69.66666666666667,54.734375,75C54.734375,80.33333333333333,54.734375,83.66666666666667,54.734375,85.33333333333333L54.734375,87" style="stroke: rgb(0, 0, 0); stroke-width: 1px; fill: none; marker-end: url(&quot;#arrowhead&quot;);"/><path class="edge-path-hit-test" d="M54.734375,23L54.734375,24.666666666666668C54.734375,26.333333333333332,54.734375,29.666666666666668,54.734375,35C54.734375,40.333333333333336,54.734375,47.666666666666664,54.734375,55C54.734375,62.333333333333336,54.734375,69.66666666666667,54.734375,75C54.734375,80.33333333333333,54.734375,83.66666666666667,54.734375,85.33333333333333L54.734375,87" style="pointer-events: stroke; stroke-width: 0.5em; fill: none; stroke: rgb(0, 0, 0); stroke-opacity: 0.001;"/><path id="edge-/0/Conv_output_0" class="edge-path" d="M54.734375,144L54.734375,145.66666666666666C54.734375,147.33333333333334,54.734375,150.66666666666666,54.734375,154C54.734375,157.33333333333334,54.734375,160.66666666666666,54.734375,162.33333333333334L54.734375,164" style="stroke: rgb(0, 0, 0); stroke-width: 1px; fill: none; marker-end: url(&quot;#arrowhead&quot;);"/><path class="edge-path-hit-test" d="M54.734375,144L54.734375,145.66666666666666C54.734375,147.33333333333334,54.734375,150.66666666666666,54.734375,154C54.734375,157.33333333333334,54.734375,160.66666666666666,54.734375,162.33333333333334L54.734375,164" style="pointer-events: stroke; stroke-width: 0.5em; fill: none; stroke: rgb(0, 0, 0); stroke-opacity: 0.001;"/><path id="edge-/1/BatchNormalization_output_0" class="edge-path" d="M54.734375,249L54.734375,250.66666666666666C54.734375,252.33333333333334,54.734375,255.66666666666666,54.734375,259C54.734375,262.3333333333333,54.734375,265.6666666666667,54.734375,267.3333333333333L54.734375,269" style="stroke: rgb(0, 0, 0); stroke-width: 1px; fill: none; marker-end: url(&quot;#arrowhead&quot;);"/><path class="edge-path-hit-test" d="M54.734375,249L54.734375,250.66666666666666C54.734375,252.33333333333334,54.734375,255.66666666666666,54.734375,259C54.734375,262.3333333333333,54.734375,265.6666666666667,54.734375,267.3333333333333L54.734375,269" style="pointer-events: stroke; stroke-width: 0.5em; fill: none; stroke: rgb(0, 0, 0); stroke-opacity: 0.001;"/><path id="edge-output" class="edge-path" d="M54.734375,292L54.734375,295.6666666666667C54.734375,299.3333333333333,54.734375,306.6666666666667,54.734375,314C54.734375,321.3333333333333,54.734375,328.6666666666667,54.734375,332.3333333333333L54.734375,336" style="stroke: rgb(0, 0, 0); stroke-width: 1px; fill: none; marker-end: url(&quot;#arrowhead&quot;);"/><path class="edge-path-hit-test" d="M54.734375,292L54.734375,295.6666666666667C54.734375,299.3333333333333,54.734375,306.6666666666667,54.734375,314C54.734375,321.3333333333333,54.734375,328.6666666666667,54.734375,332.3333333333333L54.734375,336" style="pointer-events: stroke; stroke-width: 0.5em; fill: none; stroke: rgb(0, 0, 0); stroke-opacity: 0.001;"/></g><g id="edge-labels" class="edge-labels"><text class="edge-label" id="edge-label-edge-input" transform="translate(59.734375,48)" style="opacity: 1; font-family: -apple-system, BlinkMacSystemFont, &quot;Segoe WPC&quot;, &quot;Segoe UI&quot;, Ubuntu, &quot;Droid Sans&quot;, sans-serif, &quot;PingFang SC&quot;; font-size: 10px;"><tspan xml:space="preserve" dy="1em" x="1">8×32×16×16</tspan></text><text class="edge-label" id="edge-label-edge-output" transform="translate(59.734375,307)" style="opacity: 1; font-family: -apple-system, BlinkMacSystemFont, &quot;Segoe WPC&quot;, &quot;Segoe UI&quot;, Ubuntu, &quot;Droid Sans&quot;, sans-serif, &quot;PingFang SC&quot;; font-size: 10px;"><tspan xml:space="preserve" dy="1em" x="1">8×32×16×16</tspan></text></g><g id="nodes" class="nodes"><g id="input-name-input" class="node graph-input" transform="translate(34.94384765625,0)" style="opacity: 1;"><g class="node-item graph-item-input" transform="translate(0,0)"><path d="M5,0h29.5810546875a5,5 0 0 1 5,5v13a5,5 0 0 1 -5,5h-29.5810546875a5,5 0 0 1 -5,-5v-13a5,5 0 0 1 5,-5z" style="stroke: rgb(0, 0, 0); fill: rgb(238, 238, 238); stroke-width: 0;"/><text x="6" y="16" style="font-family: -apple-system, BlinkMacSystemFont, &quot;Segoe WPC&quot;, &quot;Segoe UI&quot;, Ubuntu, &quot;Droid Sans&quot;, sans-serif, &quot;PingFang SC&quot;; font-size: 11px; text-rendering: geometricprecision;">input</text><title>float32[8,32,16,16]</title></g><path class="node border" d="M5,0h29.5810546875a5,5 0 0 1 5,5v13a5,5 0 0 1 -5,5h-29.5810546875a5,5 0 0 1 -5,-5v-13a5,5 0 0 1 5,-5z" style="stroke: rgb(51, 51, 51); fill: none; stroke-width: 1px;"/></g><g id="node-name-/0/Conv" class="node graph-node" transform="translate(10.9140625,87)" style="opacity: 1;"><g class="node-item node-item-type node-item-type-layer" transform="translate(0,0)"><path d="M5,0h77.640625a5,5 0 0 1 5,5v18a0,0 0 0 1 0,0h-87.640625a0,0 0 0 1 0,0v-18a5,5 0 0 1 5,-5z" style="stroke: rgb(0, 0, 0); fill: rgb(51, 85, 136); stroke-width: 0;"/><text x="6" y="16" style="font-family: -apple-system, BlinkMacSystemFont, &quot;Segoe WPC&quot;, &quot;Segoe UI&quot;, Ubuntu, &quot;Droid Sans&quot;, sans-serif, &quot;PingFang SC&quot;; font-size: 11px; text-rendering: geometricprecision; fill: rgb(255, 255, 255);">Conv</text><title>/0/Conv</title></g><g class="node-attribute" transform="translate(0,23)"><path d="M0,0h87.640625a0,0 0 0 1 0,0v29a5,5 0 0 1 -5,5h-77.640625a5,5 0 0 1 -5,-5v-29a0,0 0 0 1 0,0z" style="stroke: rgb(0, 0, 0); fill: rgb(255, 255, 255); stroke-width: 0;"/><text id="initializer-0.weight" xml:space="preserve" x="6" y="14" style="font-family: -apple-system, BlinkMacSystemFont, &quot;Segoe WPC&quot;, &quot;Segoe UI&quot;, Ubuntu, &quot;Droid Sans&quot;, sans-serif, &quot;PingFang SC&quot;; font-size: 9px; font-weight: normal; text-rendering: geometricprecision;"><title>float32[32,32,3,3]</title><tspan style="font-weight: bold;">W</tspan><tspan>〈32×32×3×3〉</tspan></text><text id="initializer-0.bias" xml:space="preserve" x="6" y="28" style="font-family: -apple-system, BlinkMacSystemFont, &quot;Segoe WPC&quot;, &quot;Segoe UI&quot;, Ubuntu, &quot;Droid Sans&quot;, sans-serif, &quot;PingFang SC&quot;; font-size: 9px; font-weight: normal; text-rendering: geometricprecision;"><title>float32[32]</title><tspan style="font-weight: bold;">B</tspan><tspan>〈32〉</tspan></text><line class="node" x1="0" x2="87.640625" y1="0" y2="0" style="stroke: rgb(51, 51, 51); fill: none; stroke-width: 1px;"/></g><path class="node border" d="M5,0h77.640625a5,5 0 0 1 5,5v47a5,5 0 0 1 -5,5h-77.640625a5,5 0 0 1 -5,-5v-47a5,5 0 0 1 5,-5z" style="stroke: rgb(51, 51, 51); fill: none; stroke-width: 1px;"/></g><g id="node-name-/1/BatchNormalization" class="node graph-node" transform="translate(0,164)" style="opacity: 1;"><g class="node-item node-item-type node-item-type-normalization" transform="translate(0,0)"><path d="M5,0h99.46875a5,5 0 0 1 5,5v18a0,0 0 0 1 0,0h-109.46875a0,0 0 0 1 0,0v-18a5,5 0 0 1 5,-5z" style="stroke: rgb(0, 0, 0); fill: rgb(51, 85, 68); stroke-width: 0;"/><text x="6" y="16" style="font-family: -apple-system, BlinkMacSystemFont, &quot;Segoe WPC&quot;, &quot;Segoe UI&quot;, Ubuntu, &quot;Droid Sans&quot;, sans-serif, &quot;PingFang SC&quot;; font-size: 11px; text-rendering: geometricprecision; fill: rgb(255, 255, 255);">BatchNormalization</text><title>/1/BatchNormalization</title></g><g class="node-attribute" transform="translate(0,23)"><path d="M0,0h109.46875a0,0 0 0 1 0,0v57a5,5 0 0 1 -5,5h-99.46875a5,5 0 0 1 -5,-5v-57a0,0 0 0 1 0,0z" style="stroke: rgb(0, 0, 0); fill: rgb(255, 255, 255); stroke-width: 0;"/><text id="initializer-1.weight" xml:space="preserve" x="6" y="14" style="font-family: -apple-system, BlinkMacSystemFont, &quot;Segoe WPC&quot;, &quot;Segoe UI&quot;, Ubuntu, &quot;Droid Sans&quot;, sans-serif, &quot;PingFang SC&quot;; font-size: 9px; font-weight: normal; text-rendering: geometricprecision;"><title>float32[32]</title><tspan style="font-weight: bold;">scale</tspan><tspan>〈32〉</tspan></text><text id="initializer-1.bias" xml:space="preserve" x="6" y="28" style="font-family: -apple-system, BlinkMacSystemFont, &quot;Segoe WPC&quot;, &quot;Segoe UI&quot;, Ubuntu, &quot;Droid Sans&quot;, sans-serif, &quot;PingFang SC&quot;; font-size: 9px; font-weight: normal; text-rendering: geometricprecision;"><title>float32[32]</title><tspan style="font-weight: bold;">B</tspan><tspan>〈32〉</tspan></text><text id="initializer-1.running_mean" xml:space="preserve" x="6" y="42" style="font-family: -apple-system, BlinkMacSystemFont, &quot;Segoe WPC&quot;, &quot;Segoe UI&quot;, Ubuntu, &quot;Droid Sans&quot;, sans-serif, &quot;PingFang SC&quot;; font-size: 9px; font-weight: normal; text-rendering: geometricprecision;"><title>float32[32]</title><tspan style="font-weight: bold;">input_mean</tspan><tspan>〈32〉</tspan></text><text id="initializer-1.running_var" xml:space="preserve" x="6" y="56" style="font-family: -apple-system, BlinkMacSystemFont, &quot;Segoe WPC&quot;, &quot;Segoe UI&quot;, Ubuntu, &quot;Droid Sans&quot;, sans-serif, &quot;PingFang SC&quot;; font-size: 9px; font-weight: normal; text-rendering: geometricprecision;"><title>float32[32]</title><tspan style="font-weight: bold;">input_var</tspan><tspan>〈32〉</tspan></text><line class="node" x1="0" x2="109.46875" y1="0" y2="0" style="stroke: rgb(51, 51, 51); fill: none; stroke-width: 1px;"/></g><path class="node border" d="M5,0h99.46875a5,5 0 0 1 5,5v75a5,5 0 0 1 -5,5h-99.46875a5,5 0 0 1 -5,-5v-75a5,5 0 0 1 5,-5z" style="stroke: rgb(51, 51, 51); fill: none; stroke-width: 1px;"/></g><g id="node-name-/2/Softmax" class="node graph-node" transform="translate(27.468994140625,269)" style="opacity: 1;"><g class="node-item node-item-type node-item-type-activation" transform="translate(0,0)"><path d="M5,0h44.53076171875a5,5 0 0 1 5,5v13a5,5 0 0 1 -5,5h-44.53076171875a5,5 0 0 1 -5,-5v-13a5,5 0 0 1 5,-5z" style="stroke: rgb(0, 0, 0); fill: rgb(112, 41, 33); stroke-width: 0;"/><text x="6" y="16" style="font-family: -apple-system, BlinkMacSystemFont, &quot;Segoe WPC&quot;, &quot;Segoe UI&quot;, Ubuntu, &quot;Droid Sans&quot;, sans-serif, &quot;PingFang SC&quot;; font-size: 11px; text-rendering: geometricprecision; fill: rgb(255, 255, 255);">Softmax</text><title>/2/Softmax</title></g><path class="node border" d="M5,0h44.53076171875a5,5 0 0 1 5,5v13a5,5 0 0 1 -5,5h-44.53076171875a5,5 0 0 1 -5,-5v-13a5,5 0 0 1 5,-5z" style="stroke: rgb(51, 51, 51); fill: none; stroke-width: 1px;"/></g><g class="node" transform="translate(31.189453125,336)" style="opacity: 1;"><g class="node-item graph-item-output" transform="translate(0,0)"><path d="M5,0h37.08984375a5,5 0 0 1 5,5v13a5,5 0 0 1 -5,5h-37.08984375a5,5 0 0 1 -5,-5v-13a5,5 0 0 1 5,-5z" style="stroke: rgb(0, 0, 0); fill: rgb(238, 238, 238); stroke-width: 0;"/><text x="6" y="16" style="font-family: -apple-system, BlinkMacSystemFont, &quot;Segoe WPC&quot;, &quot;Segoe UI&quot;, Ubuntu, &quot;Droid Sans&quot;, sans-serif, &quot;PingFang SC&quot;; font-size: 11px; text-rendering: geometricprecision;">output</text><title>float32[8,32,16,16]</title></g><path class="node border" d="M5,0h37.08984375a5,5 0 0 1 5,5v13a5,5 0 0 1 -5,5h-37.08984375a5,5 0 0 1 -5,-5v-13a5,5 0 0 1 5,-5z" style="stroke: rgb(51, 51, 51); fill: none; stroke-width: 1px;"/></g></g></g></svg>