<?xml version="1.0" encoding="UTF-8" standalone="no"?>
<!DOCTYPE svg PUBLIC "-//W3C//DTD SVG 1.1//EN"
 "http://www.w3.org/Graphics/SVG/1.1/DTD/svg11.dtd">
<!-- Generated by graphviz version 6.0.1 (20220911.1526)
 -->
<!-- Pages: 1 -->
<svg width="570pt" height="429pt"
 viewBox="0.00 0.00 570.00 429.00" xmlns="http://www.w3.org/2000/svg" xmlns:xlink="http://www.w3.org/1999/xlink">
<g id="graph0" class="graph" transform="scale(1 1) rotate(0) translate(4 425)">
<polygon fill="white" stroke="none" points="-4,4 -4,-425 566,-425 566,4 -4,4"/>
<!-- 0 -->
<g id="node1" class="node">
<title>0</title>
<polygon fill="none" stroke="gray" points="178,-421 0,-421 0,-348 178,-348 178,-421"/>
<text text-anchor="start" x="12" y="-401.3" font-family="Times New Roman,serif" font-size="14.00">Value(0)</text>
<text text-anchor="start" x="99.5" y="-402.3" font-family="Times New Roman,serif" font-weight="bold" font-size="14.00">Input</text>
<text text-anchor="start" x="19.5" y="-380.3" font-family="Times New Roman,serif" font-size="14.00">shape</text>
<text text-anchor="start" x="66" y="-380.3" font-family="Times New Roman,serif" font-size="14.00">(8 x 32 x 16 x 16)</text>
<text text-anchor="start" x="20.5" y="-359.3" font-family="Times New Roman,serif" font-size="14.00">index</text>
<text text-anchor="start" x="112.5" y="-359.3" font-family="Times New Roman,serif" font-size="14.00">0</text>
</g>
<!-- 3 -->
<g id="node4" class="node">
<title>3</title>
<polygon fill="none" stroke="blue" points="366,-312 188,-312 188,-239 366,-239 366,-312"/>
<text text-anchor="start" x="200" y="-292.3" font-family="Times New Roman,serif" font-size="14.00">Value(3)</text>
<text text-anchor="start" x="287.5" y="-293.3" font-family="Times New Roman,serif" font-weight="bold" font-size="14.00">Conv</text>
<text text-anchor="start" x="207.5" y="-271.3" font-family="Times New Roman,serif" font-size="14.00">shape</text>
<text text-anchor="start" x="254" y="-271.3" font-family="Times New Roman,serif" font-size="14.00">(8 x 32 x 16 x 16)</text>
<text text-anchor="start" x="207" y="-250.3" font-family="Times New Roman,serif" font-size="14.00">kernel</text>
<text text-anchor="start" x="293.5" y="-250.3" font-family="Times New Roman,serif" font-size="14.00">3x3</text>
</g>
<!-- 0&#45;&gt;3 -->
<g id="edge1" class="edge">
<title>0&#45;&gt;3</title>
<path fill="none" stroke="black" d="M151.6,-347.87C168.79,-338.09 187.57,-327.4 205.23,-317.35"/>
<polygon fill="black" stroke="black" points="207.39,-320.14 214.35,-312.16 203.93,-314.06 207.39,-320.14"/>
</g>
<!-- 1 -->
<g id="node2" class="node">
<title>1</title>
<polygon fill="none" stroke="gray" points="367.5,-410.5 196.5,-410.5 196.5,-358.5 367.5,-358.5 367.5,-410.5"/>
<text text-anchor="start" x="209" y="-391.3" font-family="Times New Roman,serif" font-size="14.00">Value(1)</text>
<text text-anchor="start" x="281.5" y="-392.3" font-family="Times New Roman,serif" font-weight="bold" font-size="14.00">Constant</text>
<text text-anchor="start" x="216.5" y="-370.3" font-family="Times New Roman,serif" font-size="14.00">shape</text>
<text text-anchor="start" x="263" y="-370.3" font-family="Times New Roman,serif" font-size="14.00">(32 x 32 x 3 x 3)</text>
</g>
<!-- 1&#45;&gt;3 -->
<g id="edge2" class="edge">
<title>1&#45;&gt;3</title>
<path fill="none" stroke="black" d="M280.83,-358.41C280.33,-347.7 279.73,-334.85 279.15,-322.53"/>
<polygon fill="black" stroke="black" points="282.64,-322.2 278.68,-312.37 275.65,-322.52 282.64,-322.2"/>
</g>
<!-- 2 -->
<g id="node3" class="node">
<title>2</title>
<polygon fill="none" stroke="gray" points="555,-410.5 391,-410.5 391,-358.5 555,-358.5 555,-410.5"/>
<text text-anchor="start" x="403" y="-391.3" font-family="Times New Roman,serif" font-size="14.00">Value(2)</text>
<text text-anchor="start" x="472" y="-392.3" font-family="Times New Roman,serif" font-weight="bold" font-size="14.00">Constant</text>
<text text-anchor="start" x="410.5" y="-370.3" font-family="Times New Roman,serif" font-size="14.00">shape</text>
<text text-anchor="start" x="457" y="-370.3" font-family="Times New Roman,serif" font-size="14.00">(1 x 32 x 1 x 1)</text>
</g>
<!-- 4 -->
<g id="node5" class="node">
<title>4</title>
<polygon fill="none" stroke="brown" points="562,-301.5 384,-301.5 384,-249.5 562,-249.5 562,-301.5"/>
<text text-anchor="start" x="396" y="-282.3" font-family="Times New Roman,serif" font-size="14.00">Value(4)</text>
<text text-anchor="start" x="468" y="-283.3" font-family="Times New Roman,serif" font-weight="bold" font-size="14.00">Broadcast</text>
<text text-anchor="start" x="403.5" y="-261.3" font-family="Times New Roman,serif" font-size="14.00">shape</text>
<text text-anchor="start" x="450" y="-261.3" font-family="Times New Roman,serif" font-size="14.00">(8 x 32 x 16 x 16)</text>
</g>
<!-- 2&#45;&gt;4 -->
<g id="edge3" class="edge">
<title>2&#45;&gt;4</title>
<path fill="none" stroke="black" d="M473,-358.41C473,-344.56 473,-327.13 473,-311.91"/>
<polygon fill="black" stroke="black" points="476.5,-311.8 473,-301.8 469.5,-311.8 476.5,-311.8"/>
</g>
<!-- 5 -->
<g id="node6" class="node">
<title>5</title>
<polygon fill="none" stroke="green" points="464,-203 286,-203 286,-130 464,-130 464,-203"/>
<text text-anchor="start" x="298" y="-183.3" font-family="Times New Roman,serif" font-size="14.00">Value(5)</text>
<text text-anchor="start" x="381" y="-184.3" font-family="Times New Roman,serif" font-weight="bold" font-size="14.00">Binary</text>
<text text-anchor="start" x="305.5" y="-162.3" font-family="Times New Roman,serif" font-size="14.00">shape</text>
<text text-anchor="start" x="352" y="-162.3" font-family="Times New Roman,serif" font-size="14.00">(8 x 32 x 16 x 16)</text>
<text text-anchor="start" x="314" y="-141.3" font-family="Times New Roman,serif" font-size="14.00">op</text>
<text text-anchor="start" x="389.5" y="-141.3" font-family="Times New Roman,serif" font-size="14.00">Add</text>
</g>
<!-- 3&#45;&gt;5 -->
<g id="edge4" class="edge">
<title>3&#45;&gt;5</title>
<path fill="none" stroke="black" d="M309.63,-238.87C317.89,-229.85 326.85,-220.07 335.42,-210.72"/>
<polygon fill="black" stroke="black" points="338,-213.08 342.18,-203.34 332.84,-208.35 338,-213.08"/>
</g>
<!-- 4&#45;&gt;5 -->
<g id="edge5" class="edge">
<title>4&#45;&gt;5</title>
<path fill="none" stroke="black" d="M450.02,-249.41C439.52,-237.95 426.78,-224.04 414.8,-210.95"/>
<polygon fill="black" stroke="black" points="417.19,-208.38 407.85,-203.37 412.03,-213.11 417.19,-208.38"/>
</g>
<!-- 6 -->
<g id="node7" class="node">
<title>6</title>
<polygon fill="none" stroke="purple" points="464,-94 286,-94 286,0 464,0 464,-94"/>
<text text-anchor="start" x="298" y="-74.8" font-family="Times New Roman,serif" font-size="14.00">Value(6)</text>
<text text-anchor="start" x="376.5" y="-75.8" font-family="Times New Roman,serif" font-weight="bold" font-size="14.00">Softmax</text>
<text text-anchor="start" x="305.5" y="-53.8" font-family="Times New Roman,serif" font-size="14.00">shape</text>
<text text-anchor="start" x="352" y="-53.8" font-family="Times New Roman,serif" font-size="14.00">(8 x 32 x 16 x 16)</text>
<text text-anchor="start" x="303.5" y="-32.8" font-family="Times New Roman,serif" font-size="14.00">output</text>
<text text-anchor="start" x="398.5" y="-32.8" font-family="Times New Roman,serif" font-size="14.00">0</text>
<text text-anchor="start" x="311" y="-11.8" font-family="Times New Roman,serif" font-size="14.00">axis</text>
<text text-anchor="start" x="398.5" y="-11.8" font-family="Times New Roman,serif" font-size="14.00">1</text>
</g>
<!-- 5&#45;&gt;6 -->
<g id="edge6" class="edge">
<title>5&#45;&gt;6</title>
<path fill="none" stroke="black" d="M375,-129.93C375,-121.87 375,-113.12 375,-104.43"/>
<polygon fill="black" stroke="black" points="378.5,-104.31 375,-94.31 371.5,-104.31 378.5,-104.31"/>
</g>
</g>
</svg>
